# xmcd
#
# Track frame offsets:
#  150
#  15037
#  28950
#  38825
#  51632
#  63627
#  75270
#  86675
#  100095
#  112965
#  124552
#  134935
#  149670
#  159590
#  171840
#  183110
#  195540
#  213565
#  224842
#  236017
#
# Disc length: 3343 seconds
#
# Revision: 2
# Processed by: cddbd v1.5.1PL2 Copyright (c) Steve Scherf et al.
# Submitted via: Collectorz.com Music Collector 6.9
#
DISCID=250d0d14
DTITLE=Various Artist - Who's Gonna Fill Their Shoes
DYEAR=2003
DGENRE=Country - Compilation
TTITLE0=George Jones - Who's Gonna Fill Their Shoes
TTITLE1=Lefty Frizzell - Saginaw, Michigan
TTITLE2=Merle Haggard - Mama Tried
TTITLE3=Johnny Cash - Folsom Prison Blues
TTITLE4=Ernest Tubb - Waltz Across Texas
TTITLE5=Patsy Cline - Walkin' After Midnight
TTITLE6=Kitty Wells - It Wasn't God Who Made Honky Tonk Angels
TTITLE7=Tammy Wynette - D-I-V-O-R-C-E
TTITLE8=Bill Anderson - Still
TTITLE9=Ray Price - Make the World Go Away
TTITLE10=Faron Young - Hello Walls
TTITLE11=Don Gibson - Sweet Dreams
TTITLE12=Hank Locklin - Please Help Me, I'm Falling
TTITLE13=Freddy Fender - Before the Next Teardrop Falls
TTITLE14=Roger Miller - King of the Road
TTITLE15=Johnny Paycheck - Take This Job and Shove It
TTITLE16=Willie Nelson - Crazy
TTITLE17=Conway Twitty - Hello Darlin'
TTITLE18=Vern Gosdin - Set 'Em Up Joe
TTITLE19=George Jones - He Stopped Loving Her Today
EXTD=
EXTT0=
EXTT1=
EXTT2=
EXTT3=
EXTT4=
EXTT5=
EXTT6=
EXTT7=
EXTT8=
EXTT9=
EXTT10=
EXTT11=
EXTT12=
EXTT13=
EXTT14=
EXTT15=
EXTT16=
EXTT17=
EXTT18=
EXTT19=
PLAYORDER=
